<?xml version="1.0" encoding="UTF-8" standalone="no"?>
<!-- Created with Inkscape (http://www.inkscape.org/) -->

<svg
   xmlns:dc="http://purl.org/dc/elements/1.1/"
   xmlns:cc="http://creativecommons.org/ns#"
   xmlns:rdf="http://www.w3.org/1999/02/22-rdf-syntax-ns#"
   xmlns:svg="http://www.w3.org/2000/svg"
   xmlns="http://www.w3.org/2000/svg"
   xmlns:sodipodi="http://sodipodi.sourceforge.net/DTD/sodipodi-0.dtd"
   xmlns:inkscape="http://www.inkscape.org/namespaces/inkscape"
   id="svg2"
   version="1.1"
   inkscape:version="0.48.5 r10040"
   width="1075"
   height="1075"
   xml:space="preserve"
   sodipodi:docname="fundo.svg"
   inkscape:export-filename="/home/system/mapasculturais_documentos/2015_mapasculturais_minas_gerais_BH/mapasculturaisThemeBH/assets/img/fundo.png"
   inkscape:export-xdpi="56.93"
   inkscape:export-ydpi="56.93"><metadata
     id="metadata8"><rdf:RDF><cc:Work
         rdf:about=""><dc:format>image/svg+xml</dc:format><dc:type
           rdf:resource="http://purl.org/dc/dcmitype/StillImage" /><dc:title></dc:title></cc:Work></rdf:RDF></metadata><defs
     id="defs6"><clipPath
       clipPathUnits="userSpaceOnUse"
       id="clipPath18"><path
         d="M 0,860 860,860 860,0 0,0 0,860 z"
         id="path20" /></clipPath><clipPath
       clipPathUnits="userSpaceOnUse"
       id="clipPath26"><path
         d="m 93.4404,749.182 627.2236,0 0,-306.491 -627.2236,0 0,306.491 z"
         id="path28" /></clipPath><clipPath
       clipPathUnits="userSpaceOnUse"
       id="clipPath42"><path
         d="m 433.52,424.84 290.338,0 0,-160.219 -290.338,0 0,160.219 z"
         id="path44" /></clipPath></defs><sodipodi:namedview
     pagecolor="#ffffff"
     bordercolor="#666666"
     borderopacity="1"
     objecttolerance="10"
     gridtolerance="10"
     guidetolerance="10"
     inkscape:pageopacity="0"
     inkscape:pageshadow="2"
     inkscape:window-width="919"
     inkscape:window-height="1019"
     id="namedview4"
     showgrid="false"
     inkscape:zoom="0.26386404"
     inkscape:cx="224.13773"
     inkscape:cy="587.60593"
     inkscape:window-x="1959"
     inkscape:window-y="15"
     inkscape:window-maximized="0"
     inkscape:current-layer="g10" /><g
     id="g10"
     inkscape:groupmode="layer"
     inkscape:label="fundo4"
     transform="matrix(1.25,0,0,-1.25,0,1075)"><g
       id="g14"
       transform="translate(19.707145,15.275932)"
       style="fill:#ffffff;fill-opacity:1;opacity:0.5"><g
         id="g16"
         clip-path="url(#clipPath18)"
         style="fill:#ffffff;fill-opacity:1"><g
           id="g22"
           style="fill:#ffffff;fill-opacity:1"><g
             id="g24"
             style="fill:#ffffff;fill-opacity:1" /><g
             id="g30"
             style="fill:#ffffff;fill-opacity:1"><g
               clip-path="url(#clipPath26)"
               id="g32"
               style="opacity:0.60000598000000005;fill:#ffffff;fill-opacity:1"><g
                 transform="translate(448.2305,582.4082)"
                 id="g34"
                 style="fill:#ffffff;fill-opacity:1"><path
                   d="m 0,0 c -39.694,61.264 -83.349,92.227 -130.308,92.227 -13.201,0 -26.662,-2.505 -40.247,-7.437 -7.302,8.571 -12.162,14.49 -12.32,14.681 -5.602,6.172 -11.231,11.78 -16.854,16.893 14.946,4.14 29.812,6.468 44.428,6.468 42.774,0 83.408,-18.129 121.274,-50.007 14.579,-12.276 27.309,-25.852 37.735,-38.832 0.374,-0.463 0.734,-0.924 1.101,-1.382 0.285,-0.358 0.572,-0.717 0.853,-1.075 0.359,-0.454 0.707,-0.907 1.057,-1.359 0.279,-0.36 0.558,-0.719 0.835,-1.073 0.345,-0.454 0.684,-0.902 1.025,-1.35 0.27,-0.356 0.544,-0.713 0.812,-1.068 0.329,-0.441 0.652,-0.879 0.978,-1.317 0.267,-0.359 0.54,-0.721 0.799,-1.077 0.319,-0.434 0.626,-0.861 0.94,-1.289 0.26,-0.36 0.525,-0.721 0.781,-1.076 0.315,-0.438 0.618,-0.869 0.926,-1.302 0.243,-0.344 0.492,-0.688 0.732,-1.031 0.307,-0.434 0.604,-0.866 0.905,-1.299 0.232,-0.336 0.469,-0.675 0.698,-1.012 0.292,-0.423 0.575,-0.842 0.859,-1.262 0.23,-0.336 0.464,-0.674 0.685,-1.007 0.283,-0.421 0.557,-0.837 0.834,-1.256 0.215,-0.324 0.435,-0.653 0.649,-0.977 0.278,-0.429 0.552,-0.851 0.825,-1.274 0.196,-0.304 0.398,-0.614 0.592,-0.918 0.276,-0.43 0.539,-0.853 0.808,-1.281 C 21.586,9.02 21.771,8.725 21.954,8.438 22.216,8.016 22.468,7.601 22.727,7.185 22.898,6.898 23.076,6.612 23.25,6.33 23.459,5.98 23.665,5.639 23.872,5.293 15.518,3.074 7.569,1.308 0,0 m -30.826,-2.856 c -31.937,0 -57.474,8.103 -80.365,25.497 -11.804,8.967 -30.404,29.007 -45.701,46.373 10.425,3.875 20.74,5.865 30.924,5.865 22.593,0 44.888,-10.856 66.025,-28.95 14.223,-12.176 28.001,-28.396 41.074,-48.3 -4.098,-0.311 -8.094,-0.485 -11.957,-0.485 m 303.197,-136.376 c -3.611,28.024 -10.607,69.716 -29.577,108.087 -21.511,43.521 -54.979,64.679 -102.306,64.679 -23.27,0 -49.924,-5.472 -79.223,-16.263 -6.69,-2.463 -13.154,-4.69 -19.413,-6.697 -0.046,0.072 -0.094,0.143 -0.14,0.216 -0.282,0.434 -0.565,0.862 -0.847,1.293 -0.539,0.828 -1.08,1.65 -1.618,2.469 -0.334,0.502 -0.669,1 -1.001,1.499 -0.497,0.739 -0.99,1.478 -1.489,2.211 -0.353,0.523 -0.706,1.042 -1.06,1.56 -0.482,0.704 -0.967,1.411 -1.453,2.11 -0.359,0.516 -0.719,1.033 -1.078,1.548 -0.487,0.699 -0.978,1.394 -1.47,2.085 -0.354,0.503 -0.71,1.008 -1.066,1.505 -0.51,0.711 -1.018,1.413 -1.526,2.117 -0.343,0.469 -0.681,0.939 -1.023,1.405 -0.568,0.779 -1.142,1.55 -1.714,2.323 -0.281,0.376 -0.561,0.758 -0.84,1.136 -0.045,0.052 -0.084,0.106 -0.125,0.161 -51.448,68.64 -113.098,103.391 -183.625,103.391 -20.231,0 -39.774,-2.957 -58.01,-7.603 -41.889,31.292 -81.508,36.774 -104.067,36.774 l -4.488,-0.039 0,-24.264 0.943,0.073 c 3.121,0.241 6.369,0.362 9.657,0.362 18.118,0 46.915,-1.934 76.96,-19.138 -22.705,-7.683 -42.668,-17.469 -58.401,-26.42 -34.935,-19.883 -57.211,-40.065 -57.437,-40.272 l -1.724,-1.638 21.159,-21.157 c 29.019,28.359 58.891,50.122 88.837,64.669 8.956,4.352 17.945,8.234 26.927,11.543 10.546,-8.518 20.999,-19.255 30.951,-32.783 -4.17,-2.1 -8.345,-4.416 -12.525,-6.966 -18.608,-11.354 -37.326,-27.169 -55.633,-47.005 -4.271,-4.634 -8.617,-9.601 -12.912,-14.77 l -0.251,-0.299 18.813,-18.814 0.297,0.387 c 25.047,32.539 49.737,56.178 73.889,70.073 10.265,-15.549 25.737,-33.879 45.99,-51.199 23.891,-20.428 51.943,-30.36 85.76,-30.36 11.597,0 23.092,1.135 34.439,3.014 24.773,-42.473 37.989,-84.188 38.124,-84.615 l 0.937,-2.967 2.057,2.314 c 28.358,31.825 57.371,47.962 86.234,47.962 26.664,0 52.908,-13.468 77.998,-40.023 15.806,-16.726 27.136,-34.711 32.482,-43.946 l 0.126,-0.213 9.559,0 -0.285,0.609 c -17.187,36.784 -36.224,64.505 -56.579,82.391 -18.894,16.607 -39.15,25.026 -60.206,25.026 -41.695,0 -74.789,-33.693 -82.095,-41.739 -9.79,21.723 -19.878,41.327 -30.245,58.807 7.58,1.746 15.078,3.738 22.478,5.862 4.175,-8.019 10.404,-19.99 18.075,-34.798 l 1.178,-2.262 2.042,1.485 c 24.419,17.686 48.07,26.652 70.291,26.652 32.811,0 62.865,-19.2 89.326,-57.066 16.026,-22.933 27.179,-47.837 33.717,-64.691 l 0.106,-0.276 9.514,0 -0.154,0.542 c -14.488,51.773 -32.448,88.276 -54.906,111.606 -19.277,20.022 -43.235,30.604 -69.288,30.604 -33.969,0 -62.615,-19.454 -68.886,-24.037 -1.612,2.218 -5.047,7.189 -11.999,17.975 0.721,0.224 1.442,0.45 2.158,0.675 30.066,9.445 58.463,18.368 85.275,18.368 30.472,0 54.496,-10.705 73.443,-32.724 22.051,-25.619 38.939,-65.748 51.639,-122.675 l 0.075,-0.334 9.292,0 -0.063,0.485 z"
                   style="fill:#ffffff;fill-opacity:1;fill-rule:nonzero;stroke:none"
                   id="path36"
                   inkscape:connector-curvature="0" /></g></g></g></g><g
           id="g38"
           style="fill:#ffffff;fill-opacity:1"><g
             id="g40"
             style="fill:#ffffff;fill-opacity:1" /><g
             id="g46"
             style="fill:#ffffff;fill-opacity:1"><g
               clip-path="url(#clipPath42)"
               id="g48"
               style="opacity:0.80000298999999986;fill:#ffffff;fill-opacity:1"><g
                 transform="translate(519.7393,314.8594)"
                 id="g50"
                 style="fill:#ffffff;fill-opacity:1"><path
                   d="m 0,0 c 0,6.637 -2.489,11.237 -7.468,13.804 -4.978,2.563 -11.619,3.847 -19.914,3.847 l -21.498,0 0,-36.66 21.725,0 c 3.015,0 6.144,0.262 9.39,0.792 3.244,0.527 6.185,1.471 8.827,2.828 2.637,1.359 4.787,3.282 6.449,5.771 C -0.831,-7.129 0,-3.925 0,0 m -5.205,63.59 c 0,5.431 -2.075,9.391 -6.223,11.881 -4.151,2.489 -10.297,3.733 -18.443,3.733 l -19.009,0 0,-33.039 20.819,0 c 7.242,0 12.86,1.471 16.86,4.412 3.995,2.943 5.996,7.277 5.996,13.013 M 38.697,-3.621 c 0,-8.751 -1.736,-16.106 -5.205,-22.064 -3.472,-5.961 -8.072,-10.75 -13.804,-14.37 -5.735,-3.621 -12.259,-6.223 -19.575,-7.807 -7.319,-1.584 -14.822,-2.376 -22.516,-2.376 l -63.817,0 0,160.218 63.817,0 c 6.184,0 12.52,-0.643 19.008,-1.922 6.486,-1.285 12.37,-3.473 17.652,-6.563 5.279,-3.095 9.579,-7.281 12.899,-12.559 3.317,-5.284 4.979,-11.995 4.979,-20.141 0,-8.903 -2.415,-16.259 -7.242,-22.065 C 20.062,40.921 13.727,36.734 5.884,34.171 l 0,-0.452 c 4.526,-0.757 8.787,-2.151 12.786,-4.187 3.995,-2.037 7.468,-4.639 10.409,-7.807 2.942,-3.168 5.279,-6.868 7.016,-11.089 1.732,-4.226 2.602,-8.978 2.602,-14.257"
                   style="fill:#ffffff;fill-opacity:1;fill-rule:nonzero;stroke:none"
                   id="path52"
                   inkscape:connector-curvature="0" /></g><g
                 transform="translate(685.1611,264.6211)"
                 id="g54"
                 style="fill:#ffffff;fill-opacity:1"><path
                   d="m 0,0 0,66.984 -62.458,0 0,-66.984 -38.697,0 0,160.219 38.697,0 0,-60.648 62.458,0 0,60.648 38.697,0 L 38.697,0 0,0 z"
                   style="fill:#ffffff;fill-opacity:1;fill-rule:nonzero;stroke:none"
                   id="path56"
                   inkscape:connector-curvature="0" /></g></g></g></g></g></g><path
       d="m 518.92912,734.05494 -63.33397,0 0,63.333 63.33397,0 0,-63.333 z"
       style="fill:#ffffff;fill-opacity:1;fill-rule:nonzero;stroke:none;opacity:0.5"
       id="path58"
       inkscape:connector-curvature="0" /><path
       d="m 582.92812,683.38894 -55.333,0 0,55.332 55.333,0 0,-55.332 z"
       style="fill:#ffffff;fill-opacity:1;fill-rule:nonzero;stroke:none;opacity:0.5"
       id="path60"
       inkscape:connector-curvature="0" /><path
       d="m 803.92812,178.38894 -55.333,0 0,55.332 55.333,0 0,-55.332 z"
       style="fill:#ffffff;fill-opacity:1;fill-rule:nonzero;stroke:none;opacity:0.5"
       id="path62"
       inkscape:connector-curvature="0" /><path
       d="m 799.92812,714.38894 -82,0 0,82 82,0 0,-82 z"
       style="fill:#ffffff;fill-opacity:1;fill-rule:nonzero;stroke:none;opacity:0.5"
       id="path64"
       inkscape:connector-curvature="0" /><path
       d="m 334.26115,454.72094 -68,0 0,68 68,0 0,-68 z"
       style="fill:#ffffff;fill-opacity:1;fill-rule:nonzero;stroke:none;opacity:0.5"
       id="path66"
       inkscape:connector-curvature="0" /><path
       d="m 404.92815,371.72094 -67,0 0,67 67,0 0,-67 z"
       style="fill:#ffffff;fill-opacity:1;fill-rule:nonzero;stroke:none;opacity:0.5"
       id="path68"
       inkscape:connector-curvature="0" /><path
       d="m 314.59615,300.05294 -82.668,0 0,82.669 82.668,0 0,-82.669 z"
       style="fill:#ffffff;fill-opacity:1;fill-rule:nonzero;stroke:none;opacity:0.5"
       id="path70"
       inkscape:connector-curvature="0" /><path
       d="m 208.26115,255.05494 -81.999,0 0,82 81.999,0 0,-82 z"
       style="fill:#ffffff;fill-opacity:1;fill-rule:nonzero;stroke:none;opacity:0.5"
       id="path72"
       inkscape:connector-curvature="0" /><path
       d="m 319.93015,167.71894 -68.668,0 0,68.67 68.668,0 0,-68.67 z"
       style="fill:#ffffff;fill-opacity:1;fill-rule:nonzero;stroke:none;opacity:0.5"
       id="path74"
       inkscape:connector-curvature="0" /><path
       d="m 145.93015,422.71894 -68.668005,0 0,68.67 68.668005,0 0,-68.67 z"
       style="fill:#ffffff;fill-opacity:1;fill-rule:nonzero;stroke:none;opacity:0.5"
       id="path76"
       inkscape:connector-curvature="0" /><path
       d="m 416.25815,85.055936 -81.997,0 0,81.998004 81.997,0 0,-81.998004 z"
       style="fill:#ffffff;fill-opacity:1;fill-rule:nonzero;stroke:none;opacity:0.5"
       id="path78"
       inkscape:connector-curvature="0" /><path
       d="m 737.92812,130.05794 -68.996,0 0,68.997 68.996,0 0,-68.997 z"
       style="fill:#ffffff;fill-opacity:1;fill-rule:nonzero;stroke:none;opacity:0.5"
       id="path80"
       inkscape:connector-curvature="0" /></g></svg>