<?xml version="1.0" encoding="UTF-8" standalone="no"?>
<!-- Created with Inkscape (http://www.inkscape.org/) -->

<svg
   xmlns:dc="http://purl.org/dc/elements/1.1/"
   xmlns:cc="http://creativecommons.org/ns#"
   xmlns:rdf="http://www.w3.org/1999/02/22-rdf-syntax-ns#"
   xmlns:svg="http://www.w3.org/2000/svg"
   xmlns="http://www.w3.org/2000/svg"
   xmlns:sodipodi="http://sodipodi.sourceforge.net/DTD/sodipodi-0.dtd"
   xmlns:inkscape="http://www.inkscape.org/namespaces/inkscape"
   id="svg2"
   version="1.1"
   inkscape:version="0.48.5 r10040"
   width="140"
   height="60"
   xml:space="preserve"
   sodipodi:docname="logo-site.svg"><metadata
     id="metadata8"><rdf:RDF><cc:Work
         rdf:about=""><dc:format>image/svg+xml</dc:format><dc:type
           rdf:resource="http://purl.org/dc/dcmitype/StillImage" /><dc:title></dc:title></cc:Work></rdf:RDF></metadata><defs
     id="defs6"><clipPath
       clipPathUnits="userSpaceOnUse"
       id="clipPath40"><path
         d="M 0,860 860,860 860,0 0,0 0,860 z"
         id="path42"
         inkscape:connector-curvature="0" /></clipPath><clipPath
       clipPathUnits="userSpaceOnUse"
       id="clipPath48"><path
         d="m 197.671,590.286 485.118,0 0,-331.908 -485.118,0 0,331.908 z"
         id="path50"
         inkscape:connector-curvature="0" /></clipPath></defs><sodipodi:namedview
     pagecolor="#ffffff"
     bordercolor="#666666"
     borderopacity="1"
     objecttolerance="10"
     gridtolerance="10"
     guidetolerance="10"
     inkscape:pageopacity="0"
     inkscape:pageshadow="2"
     inkscape:window-width="1920"
     inkscape:window-height="1014"
     id="namedview4"
     showgrid="false"
     inkscape:zoom="8.3934513"
     inkscape:cx="73.225585"
     inkscape:cy="25.239457"
     inkscape:window-x="0"
     inkscape:window-y="27"
     inkscape:window-maximized="1"
     inkscape:current-layer="g10" /><g
     id="g10"
     inkscape:groupmode="layer"
     inkscape:label="bhfc"
     transform="matrix(1.25,0,0,-1.25,0,60)"><g
       id="g12"
       transform="matrix(0.12664437,0,0,0.12664437,19.384004,-0.02322282)"
       inkscape:export-filename="/home/system/mapasculturais_documentos/2015_mapasculturais_minas_gerais_BH/mapasculturaisThemeBH/assets/img/logo-site.png"
       inkscape:export-xdpi="90.05336"
       inkscape:export-ydpi="90.05336"><path
         d="m 0,0 -48.463,43.77 -86.369,0.333 0.662,319.686 509.559,0 0,-319.019 L 45.459,44.103 0,0 z"
         style="fill:#d2d4d5;fill-opacity:1;fill-rule:nonzero;stroke:none"
         id="path14"
         inkscape:connector-curvature="0" /></g><g
       id="g16"
       transform="matrix(0.12664437,0,0,0.12664437,17.885547,1.1717293)"
       inkscape:export-filename="/home/system/mapasculturais_documentos/2015_mapasculturais_minas_gerais_BH/mapasculturaisThemeBH/assets/img/logo-site.png"
       inkscape:export-xdpi="90.05336"
       inkscape:export-ydpi="90.05336"><path
         d="m 0,0 -54,49.334 -87,0.333 0.667,319.687 513.285,0 0,-319.02 L 53,49.667 0,0 z"
         style="fill:#96989b;fill-opacity:1;fill-rule:nonzero;stroke:none"
         id="path18"
         inkscape:connector-curvature="0" /></g><g
       id="g20"
       transform="matrix(0.12664437,0,0,0.12664437,17.837257,2.2684941)"
       inkscape:export-filename="/home/system/mapasculturais_documentos/2015_mapasculturais_minas_gerais_BH/mapasculturaisThemeBH/assets/img/logo-site.png"
       inkscape:export-xdpi="90.05336"
       inkscape:export-ydpi="90.05336"><path
         d="m 0,0 -50.452,46.173 -84.333,0 -0.167,309.167 502.912,0 0,-307.766 -316.504,0 L 0,0 z"
         style="fill:#ffffff;fill-opacity:1;fill-rule:nonzero;stroke:none"
         id="path22"
         inkscape:connector-curvature="0" /></g><g
       id="g24"
       transform="matrix(0.12664437,0,0,0.12664437,17.837257,2.2684941)"
       inkscape:export-filename="/home/system/mapasculturais_documentos/2015_mapasculturais_minas_gerais_BH/mapasculturaisThemeBH/assets/img/logo-site.png"
       inkscape:export-xdpi="90.05336"
       inkscape:export-ydpi="90.05336"><path
         d="m 0,0 -50.452,46.173 -84.333,0 -0.167,309.167 502.912,0 0,-307.766 -316.504,0 L 0,0 z"
         style="fill:none;stroke:#ffffff;stroke-width:1;stroke-linecap:butt;stroke-linejoin:miter;stroke-miterlimit:10;stroke-opacity:1;stroke-dasharray:none"
         id="path26"
         inkscape:connector-curvature="0" /></g><g
       id="g28"
       transform="matrix(0.12664437,0,0,0.12664437,17.758966,2.4804718)"
       inkscape:export-filename="/home/system/mapasculturais_documentos/2015_mapasculturais_minas_gerais_BH/mapasculturaisThemeBH/assets/img/logo-site.png"
       inkscape:export-xdpi="90.05336"
       inkscape:export-ydpi="90.05336"><path
         d="m 0,0 -48,44 -84,0 0,310 501,0 L 369,45 50,45 0,0 z"
         style="fill:#ffffff;fill-opacity:1;fill-rule:nonzero;stroke:none"
         id="path30"
         inkscape:connector-curvature="0" /></g><g
       id="g32"
       transform="matrix(0.12664437,0,0,0.12664437,17.505678,5.6465835)"
       inkscape:export-filename="/home/system/mapasculturais_documentos/2015_mapasculturais_minas_gerais_BH/mapasculturaisThemeBH/assets/img/logo-site.png"
       inkscape:export-xdpi="90.05336"
       inkscape:export-ydpi="90.05336"><path
         d="m 0,0 -40.5,40.5 -67.5,0 0,266.5 455,0 L 347,40 43,40 0,0 z"
         style="fill:#84a64b;fill-opacity:1;fill-rule:nonzero;stroke:none"
         id="path34"
         inkscape:connector-curvature="0" /></g><g
       id="g36"
       transform="matrix(0.12664437,0,0,0.12664437,-23.006298,-28.688262)"
       inkscape:export-filename="/home/system/mapasculturais_documentos/2015_mapasculturais_minas_gerais_BH/mapasculturaisThemeBH/assets/img/logo-site.png"
       inkscape:export-xdpi="90.05336"
       inkscape:export-ydpi="90.05336"><g
         id="g38"
         clip-path="url(#clipPath40)"><g
           id="g44"><g
             id="g46" /><g
             id="g52"><g
               clip-path="url(#clipPath48)"
               id="g54"
               style="opacity:0.19999701"><g
                 transform="translate(330.7246,270.8018)"
                 id="g56"><path
                   d="M 0,0 -128.641,128.642"
                   style="fill:none;stroke:#ffffff;stroke-width:4;stroke-linecap:butt;stroke-linejoin:miter;stroke-miterlimit:10;stroke-opacity:1;stroke-dasharray:none"
                   id="path58"
                   inkscape:connector-curvature="0" /></g><g
                 transform="translate(319.7139,259.792)"
                 id="g60"><path
                   d="M 0,0 -120.629,120.629"
                   style="fill:none;stroke:#ffffff;stroke-width:4;stroke-linecap:butt;stroke-linejoin:miter;stroke-miterlimit:10;stroke-opacity:1;stroke-dasharray:none"
                   id="path62"
                   inkscape:connector-curvature="0" /></g><g
                 transform="translate(343.1777,280.3721)"
                 id="g64"><path
                   d="M 0,0 -139.807,139.806"
                   style="fill:none;stroke:#ffffff;stroke-width:4;stroke-linecap:butt;stroke-linejoin:miter;stroke-miterlimit:10;stroke-opacity:1;stroke-dasharray:none"
                   id="path66"
                   inkscape:connector-curvature="0" /></g><g
                 transform="translate(205.5742,351.9111)"
                 id="g68"><path
                   d="M 0,0 53.334,-53.334"
                   style="fill:none;stroke:#ffffff;stroke-width:4;stroke-linecap:butt;stroke-linejoin:miter;stroke-miterlimit:10;stroke-opacity:1;stroke-dasharray:none"
                   id="path70"
                   inkscape:connector-curvature="0" /></g><g
                 transform="translate(231.7305,303.7324)"
                 id="g72"><path
                   d="M 0,0 -27.334,27.333"
                   style="fill:none;stroke:#ffffff;stroke-width:4;stroke-linecap:butt;stroke-linejoin:miter;stroke-miterlimit:10;stroke-opacity:1;stroke-dasharray:none"
                   id="path74"
                   inkscape:connector-curvature="0" /></g><g
                 transform="translate(208.7842,436.7861)"
                 id="g76"><path
                   d="M 0,0 147.333,-147.333"
                   style="fill:none;stroke:#ffffff;stroke-width:4;stroke-linecap:butt;stroke-linejoin:miter;stroke-miterlimit:10;stroke-opacity:1;stroke-dasharray:none"
                   id="path78"
                   inkscape:connector-curvature="0" /></g><g
                 transform="translate(207.1279,460.4639)"
                 id="g80"><path
                   d="M 0,0 158.667,-158.666"
                   style="fill:none;stroke:#ffffff;stroke-width:4;stroke-linecap:butt;stroke-linejoin:miter;stroke-miterlimit:10;stroke-opacity:1;stroke-dasharray:none"
                   id="path82"
                   inkscape:connector-curvature="0" /></g><g
                 transform="translate(208.8047,480.8081)"
                 id="g84"><path
                   d="M 0,0 172.667,-172.667"
                   style="fill:none;stroke:#ffffff;stroke-width:4;stroke-linecap:butt;stroke-linejoin:miter;stroke-miterlimit:10;stroke-opacity:1;stroke-dasharray:none"
                   id="path86"
                   inkscape:connector-curvature="0" /></g><g
                 transform="translate(210.4824,501.1519)"
                 id="g88"><path
                   d="M 0,0 193.334,-193.333"
                   style="fill:none;stroke:#ffffff;stroke-width:4;stroke-linecap:butt;stroke-linejoin:miter;stroke-miterlimit:10;stroke-opacity:1;stroke-dasharray:none"
                   id="path90"
                   inkscape:connector-curvature="0" /></g><g
                 transform="translate(211.1602,522.4961)"
                 id="g92"><path
                   d="M 0,0 213.667,-213.667"
                   style="fill:none;stroke:#ffffff;stroke-width:4;stroke-linecap:butt;stroke-linejoin:miter;stroke-miterlimit:10;stroke-opacity:1;stroke-dasharray:none"
                   id="path94"
                   inkscape:connector-curvature="0" /></g><g
                 transform="translate(210.1709,545.5068)"
                 id="g96"><path
                   d="M 0,0 241.001,-241"
                   style="fill:none;stroke:#ffffff;stroke-width:4;stroke-linecap:butt;stroke-linejoin:miter;stroke-miterlimit:10;stroke-opacity:1;stroke-dasharray:none"
                   id="path98"
                   inkscape:connector-curvature="0" /></g><g
                 transform="translate(211.1816,566.5171)"
                 id="g100"><path
                   d="M 0,0 259,-258.999"
                   style="fill:none;stroke:#ffffff;stroke-width:4;stroke-linecap:butt;stroke-linejoin:miter;stroke-miterlimit:10;stroke-opacity:1;stroke-dasharray:none"
                   id="path102"
                   inkscape:connector-curvature="0" /></g><g
                 transform="translate(214.1934,585.5278)"
                 id="g104"><path
                   d="M 0,0 280.998,-281"
                   style="fill:none;stroke:#ffffff;stroke-width:4;stroke-linecap:butt;stroke-linejoin:miter;stroke-miterlimit:10;stroke-opacity:1;stroke-dasharray:none"
                   id="path106"
                   inkscape:connector-curvature="0" /></g><g
                 transform="translate(232.8701,588.8721)"
                 id="g108"><path
                   d="M 0,0 280.666,-280.666"
                   style="fill:none;stroke:#ffffff;stroke-width:4;stroke-linecap:butt;stroke-linejoin:miter;stroke-miterlimit:10;stroke-opacity:1;stroke-dasharray:none"
                   id="path110"
                   inkscape:connector-curvature="0" /></g><g
                 transform="translate(256.5479,587.2168)"
                 id="g112"><path
                   d="M 0,0 280.666,-280.667"
                   style="fill:none;stroke:#ffffff;stroke-width:4;stroke-linecap:butt;stroke-linejoin:miter;stroke-miterlimit:10;stroke-opacity:1;stroke-dasharray:none"
                   id="path114"
                   inkscape:connector-curvature="0" /></g><g
                 transform="translate(278.5586,587.228)"
                 id="g116"><path
                   d="M 0,0 280.667,-280.667"
                   style="fill:none;stroke:#ffffff;stroke-width:4;stroke-linecap:butt;stroke-linejoin:miter;stroke-miterlimit:10;stroke-opacity:1;stroke-dasharray:none"
                   id="path118"
                   inkscape:connector-curvature="0" /></g><g
                 transform="translate(299.9023,587.9048)"
                 id="g120"><path
                   d="M 0,0 280.666,-280.667"
                   style="fill:none;stroke:#ffffff;stroke-width:4;stroke-linecap:butt;stroke-linejoin:miter;stroke-miterlimit:10;stroke-opacity:1;stroke-dasharray:none"
                   id="path122"
                   inkscape:connector-curvature="0" /></g><g
                 transform="translate(324.5791,585.249)"
                 id="g124"><path
                   d="M 0,0 280.667,-280.667"
                   style="fill:none;stroke:#ffffff;stroke-width:4;stroke-linecap:butt;stroke-linejoin:miter;stroke-miterlimit:10;stroke-opacity:1;stroke-dasharray:none"
                   id="path126"
                   inkscape:connector-curvature="0" /></g><g
                 transform="translate(347.2568,584.5937)"
                 id="g128"><path
                   d="M 0,0 280.667,-280.667"
                   style="fill:none;stroke:#ffffff;stroke-width:4;stroke-linecap:butt;stroke-linejoin:miter;stroke-miterlimit:10;stroke-opacity:1;stroke-dasharray:none"
                   id="path130"
                   inkscape:connector-curvature="0" /></g><g
                 transform="translate(369.2676,584.604)"
                 id="g132"><path
                   d="M 0,0 280.666,-280.667"
                   style="fill:none;stroke:#ffffff;stroke-width:4;stroke-linecap:butt;stroke-linejoin:miter;stroke-miterlimit:10;stroke-opacity:1;stroke-dasharray:none"
                   id="path134"
                   inkscape:connector-curvature="0" /></g><g
                 transform="translate(392.2793,583.6152)"
                 id="g136"><path
                   d="M 0,0 280.666,-280.668"
                   style="fill:none;stroke:#ffffff;stroke-width:4;stroke-linecap:butt;stroke-linejoin:miter;stroke-miterlimit:10;stroke-opacity:1;stroke-dasharray:none"
                   id="path138"
                   inkscape:connector-curvature="0" /></g><g
                 transform="translate(416.623,581.2915)"
                 id="g140"><path
                   d="M 0,0 255.666,-255.667"
                   style="fill:none;stroke:#ffffff;stroke-width:4;stroke-linecap:butt;stroke-linejoin:miter;stroke-miterlimit:10;stroke-opacity:1;stroke-dasharray:none"
                   id="path142"
                   inkscape:connector-curvature="0" /></g><g
                 transform="translate(672.9668,346.9687)"
                 id="g144"><path
                   d="M 0,0 -238,238"
                   style="fill:none;stroke:#ffffff;stroke-width:4;stroke-linecap:butt;stroke-linejoin:miter;stroke-miterlimit:10;stroke-opacity:1;stroke-dasharray:none"
                   id="path146"
                   inkscape:connector-curvature="0" /></g><g
                 transform="translate(461.3115,580.6465)"
                 id="g148"><path
                   d="M 0,0 210.999,-210.999"
                   style="fill:none;stroke:#ffffff;stroke-width:4;stroke-linecap:butt;stroke-linejoin:miter;stroke-miterlimit:10;stroke-opacity:1;stroke-dasharray:none"
                   id="path150"
                   inkscape:connector-curvature="0" /></g><g
                 transform="translate(673.9883,389.9922)"
                 id="g152"><path
                   d="M 0,0 -196.334,196.332"
                   style="fill:none;stroke:#ffffff;stroke-width:4;stroke-linecap:butt;stroke-linejoin:miter;stroke-miterlimit:10;stroke-opacity:1;stroke-dasharray:none"
                   id="path154"
                   inkscape:connector-curvature="0" /></g><g
                 transform="translate(503.332,582.668)"
                 id="g156"><path
                   d="M 0,0 163.334,-163.334"
                   style="fill:none;stroke:#ffffff;stroke-width:4;stroke-linecap:butt;stroke-linejoin:miter;stroke-miterlimit:10;stroke-opacity:1;stroke-dasharray:none"
                   id="path158"
                   inkscape:connector-curvature="0" /></g><g
                 transform="translate(522.3437,585.6792)"
                 id="g160"><path
                   d="M 0,0 149.666,-149.667"
                   style="fill:none;stroke:#ffffff;stroke-width:4;stroke-linecap:butt;stroke-linejoin:miter;stroke-miterlimit:10;stroke-opacity:1;stroke-dasharray:none"
                   id="path162"
                   inkscape:connector-curvature="0" /></g><g
                 transform="translate(544.3535,585.6899)"
                 id="g164"><path
                   d="M 0,0 128.666,-128.667"
                   style="fill:none;stroke:#ffffff;stroke-width:4;stroke-linecap:butt;stroke-linejoin:miter;stroke-miterlimit:10;stroke-opacity:1;stroke-dasharray:none"
                   id="path166"
                   inkscape:connector-curvature="0" /></g><g
                 transform="translate(566.0312,586.0332)"
                 id="g168"><path
                   d="M 0,0 112.666,-112.667"
                   style="fill:none;stroke:#ffffff;stroke-width:4;stroke-linecap:butt;stroke-linejoin:miter;stroke-miterlimit:10;stroke-opacity:1;stroke-dasharray:none"
                   id="path170"
                   inkscape:connector-curvature="0" /></g><g
                 transform="translate(588.375,585.7114)"
                 id="g172"><path
                   d="M 0,0 93,-93.001"
                   style="fill:none;stroke:#ffffff;stroke-width:4;stroke-linecap:butt;stroke-linejoin:miter;stroke-miterlimit:10;stroke-opacity:1;stroke-dasharray:none"
                   id="path174"
                   inkscape:connector-curvature="0" /></g><g
                 transform="translate(611.0527,585.0552)"
                 id="g176"><path
                   d="M 0,0 64.001,-64"
                   style="fill:none;stroke:#ffffff;stroke-width:4;stroke-linecap:butt;stroke-linejoin:miter;stroke-miterlimit:10;stroke-opacity:1;stroke-dasharray:none"
                   id="path178"
                   inkscape:connector-curvature="0" /></g><g
                 transform="translate(634.3965,583.7324)"
                 id="g180"><path
                   d="M 0,0 35.334,-35.334"
                   style="fill:none;stroke:#ffffff;stroke-width:4;stroke-linecap:butt;stroke-linejoin:miter;stroke-miterlimit:10;stroke-opacity:1;stroke-dasharray:none"
                   id="path182"
                   inkscape:connector-curvature="0" /></g></g></g></g><g
           id="g184"
           transform="translate(312.7642,448.0239)"><path
             d="m 0,0 c 3.911,0 7.07,0.983 9.478,2.954 2.407,1.969 3.611,5.608 3.611,10.918 0,2.653 -0.321,4.858 -0.959,6.614 -0.64,1.754 -1.506,3.167 -2.595,4.239 -1.092,1.069 -2.389,1.818 -3.893,2.248 -1.506,0.427 -3.16,0.642 -4.965,0.642 l -6.996,0 L -6.319,0 0,0 z m -1.692,40.459 c 4.513,0 7.803,0.919 9.873,2.761 2.068,1.841 3.103,4.946 3.103,9.312 0,4.367 -0.942,7.45 -2.821,9.248 -1.881,1.798 -4.852,2.697 -8.914,2.697 l -5.868,0 0,-24.018 4.627,0 z m 6.318,37.633 c 3.31,0 6.375,-0.385 9.196,-1.156 2.821,-0.77 5.247,-2.055 7.278,-3.853 2.031,-1.798 3.611,-4.197 4.739,-7.193 1.128,-2.998 1.693,-6.679 1.693,-11.046 0,-4.967 -1.016,-9.227 -3.047,-12.78 -2.031,-3.554 -5.077,-5.972 -9.139,-7.256 l 0,-0.257 c 4.513,-0.687 8.085,-2.87 10.719,-6.551 2.632,-3.683 3.949,-8.605 3.949,-14.771 0,-3.596 -0.414,-7.021 -1.241,-10.275 -0.829,-3.255 -2.239,-6.101 -4.231,-8.541 -1.995,-2.44 -4.59,-4.389 -7.786,-5.844 -3.198,-1.457 -7.165,-2.184 -11.904,-2.184 l -27.419,0 0,91.707 27.193,0 z"
             style="fill:#ffffff;fill-opacity:1;fill-rule:nonzero;stroke:none"
             id="path186"
             inkscape:connector-curvature="0" /></g><g
           id="g188"
           transform="translate(369.1812,526.1157)"><path
             d="m 0,0 0,-35.064 18.957,0 0,35.064 16.248,0 0,-91.707 -16.248,0 0,40.716 -18.957,0 0,-40.716 -16.248,0 0,91.707 L 0,0 z"
             style="fill:#ffffff;fill-opacity:1;fill-rule:nonzero;stroke:none"
             id="path190"
             inkscape:connector-curvature="0" /></g><g
           id="g192"
           transform="translate(487.7695,526.1157)"><path
             d="m 0,0 0,-15.156 -28.773,0 0,-21.578 27.08,0 0,-15.156 -27.08,0 0,-39.817 -16.248,0 0,91.707 L 0,0 z"
             style="fill:#ffffff;fill-opacity:1;fill-rule:nonzero;stroke:none"
             id="path194"
             inkscape:connector-curvature="0" /></g><g
           id="g196"
           transform="translate(522.5234,468.96)"><path
             d="m 0,0 -7.786,41.229 -0.226,0 L -15.797,0 0,0 z m 2.144,57.156 21.326,-91.707 -16.926,0 -3.724,19.395 -21.438,0 -3.724,-19.395 -16.925,0 21.327,91.707 20.084,0 z"
             style="fill:#ffffff;fill-opacity:1;fill-rule:nonzero;stroke:none"
             id="path198"
             inkscape:connector-curvature="0" /></g><g
           id="g200"
           transform="translate(578.377,510.96)"><path
             d="m 0,0 -27.645,0 0,15.156 46.375,0 0,-14 -30.126,-62.551 30.578,0 0,-15.156 -48.858,0 0,13.487 L 0,0 z"
             style="fill:#ffffff;fill-opacity:1;fill-rule:nonzero;stroke:none"
             id="path202"
             inkscape:connector-curvature="0" /></g><g
           id="g204"
           transform="translate(313.3994,402.9043)"><path
             d="m 0,0 c -0.985,1.887 -2.78,2.832 -5.385,2.832 -1.436,0 -2.62,-0.387 -3.55,-1.157 -0.931,-0.772 -1.663,-2.022 -2.194,-3.749 -0.533,-1.73 -0.905,-3.989 -1.117,-6.781 -0.213,-2.793 -0.319,-6.211 -0.319,-10.252 0,-4.309 0.146,-7.792 0.439,-10.452 0.292,-2.66 0.744,-4.72 1.356,-6.182 0.611,-1.464 1.382,-2.447 2.313,-2.952 0.931,-0.506 2.007,-0.758 3.231,-0.758 1.01,0 1.955,0.172 2.833,0.518 0.877,0.345 1.635,1.037 2.273,2.075 0.639,1.037 1.143,2.499 1.516,4.387 0.372,1.888 0.559,4.374 0.559,7.46 l 11.488,0 c 0,-3.086 -0.239,-6.011 -0.718,-8.776 -0.479,-2.766 -1.37,-5.186 -2.673,-7.26 -1.303,-2.074 -3.138,-3.697 -5.505,-4.866 -2.367,-1.17 -5.438,-1.756 -9.214,-1.756 -4.308,0 -7.739,0.692 -10.291,2.074 -2.554,1.383 -4.508,3.377 -5.864,5.984 -1.357,2.605 -2.234,5.716 -2.633,9.335 -0.399,3.616 -0.598,7.604 -0.598,11.966 0,4.308 0.199,8.284 0.598,11.927 0.399,3.643 1.276,6.768 2.633,9.374 1.356,2.606 3.31,4.64 5.864,6.104 2.552,1.462 5.983,2.194 10.291,2.194 4.095,0 7.326,-0.666 9.693,-1.995 2.366,-1.33 4.135,-3.019 5.306,-5.065 1.169,-2.049 1.9,-4.256 2.193,-6.623 0.292,-2.367 0.439,-4.586 0.439,-6.661 l -11.488,0 C 1.476,-4.906 0.983,-1.889 0,0"
             style="fill:#ffffff;fill-opacity:1;fill-rule:nonzero;stroke:none"
             id="path206"
             inkscape:connector-curvature="0" /></g><g
           id="g208"
           transform="translate(348.3022,373.3457)"><path
             d="m 0,0 c 0,-1.437 0.092,-2.753 0.279,-3.949 0.186,-1.197 0.531,-2.234 1.037,-3.112 0.505,-0.877 1.197,-1.569 2.075,-2.074 0.877,-0.506 1.98,-0.758 3.31,-0.758 1.383,0 2.5,0.252 3.351,0.758 0.85,0.505 1.529,1.197 2.034,2.074 0.505,0.878 0.851,1.915 1.038,3.112 0.186,1.196 0.279,2.512 0.279,3.949 l 0,39.73 11.488,0 0,-39.73 c 0,-3.617 -0.506,-6.609 -1.516,-8.976 -1.011,-2.367 -2.367,-4.241 -4.068,-5.624 -1.703,-1.383 -3.644,-2.313 -5.825,-2.792 -2.181,-0.479 -4.441,-0.718 -6.781,-0.718 -2.341,0 -4.6,0.214 -6.781,0.638 -2.181,0.425 -4.122,1.289 -5.824,2.593 -1.702,1.303 -3.059,3.151 -4.069,5.545 -1.01,2.394 -1.515,5.505 -1.515,9.334 l 0,39.73 L 0,39.73 0,0 z"
             style="fill:#ffffff;fill-opacity:1;fill-rule:nonzero;stroke:none"
             id="path210"
             inkscape:connector-curvature="0" /></g><g
           id="g212"
           transform="translate(384.6011,413.0762)"><path
             d="m 0,0 11.488,0 0,-47.549 20.344,0 0,-9.414 L 0,-56.963 0,0 z"
             style="fill:#ffffff;fill-opacity:1;fill-rule:nonzero;stroke:none"
             id="path214"
             inkscape:connector-curvature="0" /></g><g
           id="g216"
           transform="translate(451.5371,403.6621)"><path
             d="m 0,0 -12.446,0 0,-47.549 -11.489,0 0,47.549 -12.445,0 0,9.414 L 0,9.414 0,0 z"
             style="fill:#ffffff;fill-opacity:1;fill-rule:nonzero;stroke:none"
             id="path218"
             inkscape:connector-curvature="0" /></g><g
           id="g220"
           transform="translate(471.4014,373.3457)"><path
             d="m 0,0 c 0,-1.437 0.092,-2.753 0.279,-3.949 0.186,-1.197 0.532,-2.234 1.037,-3.112 0.504,-0.877 1.198,-1.569 2.075,-2.074 0.877,-0.506 1.98,-0.758 3.31,-0.758 1.383,0 2.5,0.252 3.352,0.758 0.849,0.505 1.527,1.197 2.033,2.074 0.506,0.878 0.852,1.915 1.037,3.112 0.186,1.196 0.279,2.512 0.279,3.949 l 0,39.73 11.489,0 0,-39.73 c 0,-3.617 -0.506,-6.609 -1.516,-8.976 -1.01,-2.367 -2.367,-4.241 -4.068,-5.624 -1.703,-1.383 -3.645,-2.313 -5.825,-2.792 -2.181,-0.479 -4.441,-0.718 -6.781,-0.718 -2.34,0 -4.601,0.214 -6.781,0.638 -2.182,0.425 -4.123,1.289 -5.824,2.593 -1.703,1.303 -3.059,3.151 -4.069,5.545 -1.011,2.394 -1.515,5.505 -1.515,9.334 l 0,39.73 L 0,39.73 0,0 z"
             style="fill:#ffffff;fill-opacity:1;fill-rule:nonzero;stroke:none"
             id="path222"
             inkscape:connector-curvature="0" /></g><g
           id="g224"
           transform="translate(523.9756,388.1846)"><path
             d="m 0,0 c 2.766,0 4.893,0.651 6.383,1.954 1.488,1.303 2.233,3.497 2.233,6.582 0,5.266 -2.66,7.899 -7.977,7.899 l -5.425,0 L -4.786,0 0,0 z m 4.946,24.892 c 4.787,0 8.51,-1.211 11.17,-3.631 2.658,-2.42 3.988,-6.103 3.988,-11.049 0,-3.83 -0.771,-6.955 -2.313,-9.374 -1.543,-2.421 -3.937,-3.977 -7.18,-4.667 l 0,-0.16 c 2.872,-0.426 4.972,-1.356 6.302,-2.792 1.329,-1.436 2.154,-3.75 2.474,-6.941 0.106,-1.064 0.185,-2.221 0.239,-3.47 0.053,-1.25 0.106,-2.647 0.159,-4.189 0.107,-3.031 0.266,-5.345 0.48,-6.94 0.318,-1.596 1.009,-2.687 2.074,-3.272 l 0,-0.478 -12.446,0 c -0.586,0.798 -0.957,1.715 -1.117,2.752 -0.16,1.037 -0.266,2.114 -0.319,3.231 l -0.319,10.93 c -0.108,2.234 -0.666,3.989 -1.675,5.265 -1.012,1.277 -2.713,1.915 -5.107,1.915 l -6.142,0 0,-24.093 -11.488,0 0,56.963 21.22,0 z"
             style="fill:#ffffff;fill-opacity:1;fill-rule:nonzero;stroke:none"
             id="path226"
             inkscape:connector-curvature="0" /></g><g
           id="g228"
           transform="translate(579.9814,377.5742)"><path
             d="m 0,0 -5.505,25.609 -0.16,0 L -11.17,0 0,0 z m 1.516,35.502 15.078,-56.963 -11.967,0 -2.633,12.047 -15.158,0 -2.633,-12.047 -11.967,0 15.078,56.963 14.202,0 z"
             style="fill:#ffffff;fill-opacity:1;fill-rule:nonzero;stroke:none"
             id="path230"
             inkscape:connector-curvature="0" /></g></g></g></g></svg>