<?xml version="1.0" encoding="UTF-8" standalone="no"?>
<!-- Created with Inkscape (http://www.inkscape.org/) -->

<svg
   xmlns:dc="http://purl.org/dc/elements/1.1/"
   xmlns:cc="http://creativecommons.org/ns#"
   xmlns:rdf="http://www.w3.org/1999/02/22-rdf-syntax-ns#"
   xmlns:svg="http://www.w3.org/2000/svg"
   xmlns="http://www.w3.org/2000/svg"
   xmlns:sodipodi="http://sodipodi.sourceforge.net/DTD/sodipodi-0.dtd"
   xmlns:inkscape="http://www.inkscape.org/namespaces/inkscape"
   width="300"
   height="300"
   id="svg3639"
   version="1.1"
   inkscape:version="0.48.5 r10040"
   sodipodi:docname="verified-icon.svg"
   inkscape:export-filename="/home/gustavo/Projects/mapasculturaisThemeBH/assets/img/verified-icon.png"
   inkscape:export-xdpi="9"
   inkscape:export-ydpi="9">
  <defs
     id="defs3641" />
  <sodipodi:namedview
     id="base"
     pagecolor="#ffffff"
     bordercolor="#666666"
     borderopacity="1.0"
     inkscape:pageopacity="1"
     inkscape:pageshadow="2"
     inkscape:zoom="1.9512047"
     inkscape:cx="357.53311"
     inkscape:cy="6.6398407"
     inkscape:document-units="px"
     inkscape:current-layer="layer1"
     showgrid="false"
     inkscape:window-width="1920"
     inkscape:window-height="1014"
     inkscape:window-x="0"
     inkscape:window-y="27"
     inkscape:window-maximized="1" />
  <metadata
     id="metadata3644">
    <rdf:RDF>
      <cc:Work
         rdf:about="">
        <dc:format>image/svg+xml</dc:format>
        <dc:type
           rdf:resource="http://purl.org/dc/dcmitype/StillImage" />
        <dc:title></dc:title>
      </cc:Work>
    </rdf:RDF>
  </metadata>
  <g
     inkscape:label="Camada 1"
     inkscape:groupmode="layer"
     id="layer1"
     transform="translate(0,-752.36218)">
    <g
       id="g20"
       transform="matrix(9.1749529,0,0,-9.1749529,181.89151,934.4703)"
       inkscape:export-filename="/home/gustavo/Projects/mapasculturaisThemeBH/assets/img/verified-icon.png"
       inkscape:export-xdpi="10.788354"
       inkscape:export-ydpi="10.788354">
      <path
         d="m 0,0 -3.801,-7.376 -3.9,7.404 c -0.176,0.311 -0.41,0.468 -0.703,0.468 l -2.092,0 0,-0.608 0.798,0 0.31,-0.497 0,-9.437 0.966,0 0,7.939 4.028,-7.877 0.029,-0.062 0.255,0 4.11,8.003 0,-8.003 1.735,0 0,9.597 c 0,0.215 0.064,0.337 0.394,0.337 l 0.322,0 0,0.608 L 0,0.496 0,0 z"
         style="fill:#373535;fill-opacity:1;fill-rule:nonzero;stroke:none"
         id="path22"
         inkscape:connector-curvature="0" />
    </g>
    <g
       id="g64"
       transform="matrix(5.5269686,0,0,-5.5269686,-0.16624635,935.29374)"
       inkscape:export-filename="/home/gustavo/Projects/mapasculturaisThemeBH/assets/img/verified-icon.png"
       inkscape:export-xdpi="10.788354"
       inkscape:export-ydpi="10.788354">
      <path
         d="m 0,0 1.169,0 0,-16.393 2.783,0 0,8.994 6.893,0 0,1.274 -6.893,0 0,5.121 c 0,0.338 0.282,0.582 0.666,0.582 l 6.946,0 0,-1.574 1.032,0 0,2.954 L 0,0.958 0,0 z"
         style="fill:#373535;fill-opacity:1;fill-rule:nonzero;stroke:none"
         id="path66"
         inkscape:connector-curvature="0" />
    </g>
    <g
       id="g100"
       transform="matrix(2.4009731,0,0,-2.4009731,263.94014,1024.4477)"
       inkscape:export-filename="/home/gustavo/Projects/mapasculturaisThemeBH/assets/img/verified-icon.png"
       inkscape:export-xdpi="10.788354"
       inkscape:export-ydpi="10.788354">
      <path
         d="m 0,0 c -13.616,0 -21.426,7.059 -21.426,19.362 0,13.624 7.363,20.826 21.295,20.826 4.057,0 9.271,-0.939 12.709,-2.287 l 0,-6.78 -1.466,0 -0.785,3.226 -0.019,0.02 c -1.045,1.035 -4.15,3.442 -10.381,3.442 -4.876,0 -8.572,-1.883 -10.983,-5.6 -2.043,-3.146 -3.124,-7.634 -3.124,-12.986 0,-9.428 6.159,-16.705 14.325,-16.933 0.16,-0.006 0.32,-0.006 0.477,-0.006 5.598,0 9.525,2.653 12.128,4.404 0.199,0.138 0.392,0.266 0.576,0.385 L 13.24,2.647 C 10.679,1.408 6.857,0 0,0"
         style="fill:#373535;fill-opacity:1;fill-rule:nonzero;stroke:none"
         id="path102"
         inkscape:connector-curvature="0" />
    </g>
    <g
       id="g128"
       transform="matrix(1.1230067,0,0,-1.1230067,182.18121,904.51885)"
       inkscape:export-filename="/home/gustavo/Projects/mapasculturaisThemeBH/assets/img/verified-icon.png"
       inkscape:export-xdpi="10.788354"
       inkscape:export-ydpi="10.788354">
      <path
         inkscape:connector-curvature="0"
         d="m 0,0 0.396,-1.256 0.872,0.98 c 12.002,13.468 24.28,20.297 36.497,20.297 11.286,0 22.393,-5.697 33.012,-16.938 6.689,-7.08 11.483,-14.691 13.746,-18.597 l 0.055,-0.093 4.046,0 -0.122,0.259 C 81.229,0.219 73.172,11.952 64.554,19.522 56.56,26.55 47.986,30.113 39.075,30.113 21.429,30.113 7.422,15.854 4.329,12.448 c -4.143,9.195 -8.413,17.491 -12.8,24.889 -2.533,-0.582 -5.09,-1.099 -7.664,-1.526 C -5.65,17.834 -0.056,0.181 0,0"
         style="fill:#f47d36;fill-opacity:1;fill-rule:nonzero;stroke:none"
         id="path130" />
    </g>
    <g
       id="g132"
       transform="matrix(1.1230067,0,0,-1.1230067,27.85224,809.37031)"
       inkscape:export-filename="/home/gustavo/Projects/mapasculturaisThemeBH/assets/img/verified-icon.png"
       inkscape:export-xdpi="10.788354"
       inkscape:export-ydpi="10.788354">
      <path
         inkscape:connector-curvature="0"
         d="m 0,0 c -14.787,-8.414 -24.214,-16.956 -24.309,-17.044 l -0.729,-0.692 8.955,-8.954 C -3.801,-14.689 8.842,-5.478 21.515,0.679 25.306,2.521 29.109,4.164 32.912,5.565 30.183,7.77 27.438,9.625 24.717,11.182 15.107,7.932 6.66,3.79 0,0"
         style="fill:#628949;fill-opacity:1;fill-rule:nonzero;stroke:none"
         id="path134" />
    </g>
    <g
       id="g136"
       transform="matrix(1.1230067,0,0,-1.1230067,81.444033,808.35972)"
       inkscape:export-filename="/home/gustavo/Projects/mapasculturaisThemeBH/assets/img/verified-icon.png"
       inkscape:export-xdpi="10.788354"
       inkscape:export-ydpi="10.788354">
      <path
         inkscape:connector-curvature="0"
         d="m 0,0 c -2.37,2.61 -4.753,4.986 -7.134,7.15 -2.336,2.122 -4.668,4.038 -6.984,5.77 -17.729,13.245 -34.498,15.564 -44.044,15.564 l -1.901,-0.017 0,-10.269 0.4,0.031 c 1.32,0.104 2.696,0.154 4.087,0.154 7.667,0 19.855,-0.818 32.572,-8.101 2.721,-1.557 5.465,-3.412 8.194,-5.617 4.463,-3.606 8.885,-8.15 13.1,-13.875 2.314,1.164 4.623,2.162 6.924,2.996 C 2.124,-2.587 0.066,-0.082 0,0"
         style="fill:#41749b;fill-opacity:1;fill-rule:nonzero;stroke:none"
         id="path138" />
    </g>
    <g
       id="g140"
       transform="matrix(1.1230067,0,0,-1.1230067,297.82023,921.81518)"
       inkscape:export-filename="/home/gustavo/Projects/mapasculturaisThemeBH/assets/img/verified-icon.png"
       inkscape:export-xdpi="10.788354"
       inkscape:export-ydpi="10.788354">
      <path
         inkscape:connector-curvature="0"
         d="m 0,0 c -1.53,11.861 -4.491,29.506 -12.519,45.747 -9.105,18.42 -23.269,27.374 -43.299,27.374 -9.849,0 -21.129,-2.316 -33.53,-6.883 -2.831,-1.043 -5.566,-1.986 -8.215,-2.834 0.324,-0.504 0.649,-1.011 0.973,-1.521 1.02,-1.608 1.916,-3.01 2.708,-4.237 0.305,0.096 0.61,0.191 0.914,0.288 12.724,3.996 24.744,7.773 36.091,7.773 12.896,0 23.063,-4.531 31.083,-13.851 9.332,-10.842 16.481,-27.826 21.856,-51.92 l 0.031,-0.141 3.932,0 L 0,0 z"
         style="fill:#41749b;fill-opacity:1;fill-rule:nonzero;stroke:none"
         id="path142" />
    </g>
    <g
       id="g144"
       transform="matrix(1.1230067,0,0,-1.1230067,181.57097,856.3869)"
       inkscape:export-filename="/home/gustavo/Projects/mapasculturaisThemeBH/assets/img/verified-icon.png"
       inkscape:export-xdpi="10.788354"
       inkscape:export-ydpi="10.788354">
      <path
         inkscape:connector-curvature="0"
         d="m 0,0 c -0.496,0.919 -1.05,1.893 -1.658,2.907 -3.535,-0.94 -6.9,-1.687 -10.103,-2.24 -2.78,-0.481 -5.436,-0.81 -7.987,-1.004 -1.733,-0.132 -3.424,-0.206 -5.061,-0.206 -13.514,0 -24.325,3.43 -34.013,10.791 -4.994,3.795 -12.867,12.276 -19.341,19.627 -2.572,-0.957 -5.161,-2.183 -7.764,-3.68 4.344,-6.581 10.891,-14.34 19.464,-21.669 10.111,-8.647 21.985,-12.85 36.296,-12.85 4.908,0 9.774,0.479 14.576,1.275 2.573,0.427 5.13,0.945 7.663,1.527 3.207,0.738 6.382,1.581 9.513,2.481 -0.588,1.131 -1.082,2.077 -1.471,2.82 L 0,0 z"
         style="fill:#41749b;fill-opacity:1;fill-rule:nonzero;stroke:none"
         id="path146" />
    </g>
    <g
       id="g148"
       transform="matrix(1.1230067,0,0,-1.1230067,108.48996,820.04932)"
       inkscape:export-filename="/home/gustavo/Projects/mapasculturaisThemeBH/assets/img/verified-icon.png"
       inkscape:export-xdpi="10.788354"
       inkscape:export-ydpi="10.788354">
      <path
         inkscape:connector-curvature="0"
         d="m 0,0 c 9.563,0 18.999,-4.595 27.945,-12.253 6.019,-5.153 11.851,-12.018 17.384,-20.441 2.55,0.194 5.206,0.523 7.986,1.004 -16.8,25.928 -35.277,39.033 -55.151,39.033 -5.588,0 -11.284,-1.061 -17.034,-3.148 -2.3,-0.834 -4.61,-1.832 -6.923,-2.996 -1.765,-0.889 -3.534,-1.869 -5.303,-2.948 -7.875,-4.806 -15.796,-11.498 -23.544,-19.896 -1.809,-1.96 -3.649,-4.063 -5.465,-6.251 l -0.106,-0.126 7.961,-7.962 0.126,0.164 c 10.601,13.771 21.049,23.776 31.273,29.657 2.603,1.497 5.192,2.724 7.765,3.681 C -8.675,-0.842 -4.308,0 0,0"
         style="fill:#f47d36;fill-opacity:1;fill-rule:nonzero;stroke:none"
         id="path150" />
    </g>
    <g
       id="g152"
       transform="matrix(1.1230067,0,0,-1.1230067,188.25578,850.61172)"
       inkscape:export-filename="/home/gustavo/Projects/mapasculturaisThemeBH/assets/img/verified-icon.png"
       inkscape:export-xdpi="10.788354"
       inkscape:export-ydpi="10.788354">
      <path
         inkscape:connector-curvature="0"
         d="m 0,0 c -0.02,0.03 -0.041,0.06 -0.06,0.09 -0.12,0.183 -0.24,0.367 -0.357,0.548 -0.23,0.349 -0.458,0.698 -0.687,1.045 -0.142,0.212 -0.283,0.422 -0.423,0.633 -0.21,0.314 -0.418,0.626 -0.63,0.938 -0.149,0.22 -0.3,0.439 -0.449,0.657 -0.204,0.3 -0.41,0.599 -0.614,0.896 -0.154,0.218 -0.304,0.437 -0.457,0.654 -0.206,0.297 -0.413,0.59 -0.622,0.884 -0.151,0.212 -0.3,0.425 -0.451,0.635 -0.216,0.301 -0.431,0.599 -0.647,0.897 -0.144,0.198 -0.288,0.398 -0.432,0.595 -0.24,0.329 -0.483,0.656 -0.726,0.982 -0.119,0.161 -0.237,0.321 -0.355,0.483 -0.019,0.021 -0.035,0.043 -0.053,0.066 -21.773,29.051 -47.867,43.758 -77.716,43.758 -8.562,0 -16.834,-1.251 -24.551,-3.217 2.315,-1.731 4.648,-3.648 6.984,-5.77 6.326,1.75 12.618,2.736 18.803,2.736 18.103,0 35.301,-7.673 51.329,-21.164 6.169,-5.196 11.557,-10.942 15.97,-16.435 0.157,-0.197 0.311,-0.39 0.465,-0.584 0.12,-0.153 0.242,-0.306 0.362,-0.455 0.151,-0.193 0.298,-0.384 0.447,-0.577 0.118,-0.151 0.236,-0.302 0.353,-0.454 0.145,-0.192 0.289,-0.382 0.434,-0.571 0.114,-0.15 0.229,-0.3 0.344,-0.452 0.14,-0.187 0.276,-0.371 0.414,-0.557 0.111,-0.152 0.228,-0.304 0.338,-0.457 0.134,-0.183 0.264,-0.363 0.399,-0.545 0.109,-0.151 0.22,-0.304 0.328,-0.455 0.135,-0.185 0.263,-0.368 0.394,-0.551 0.102,-0.146 0.206,-0.293 0.307,-0.437 0.131,-0.184 0.258,-0.366 0.385,-0.55 0.096,-0.141 0.198,-0.285 0.296,-0.427 0.123,-0.179 0.244,-0.357 0.361,-0.535 0.099,-0.141 0.198,-0.284 0.293,-0.425 0.119,-0.179 0.235,-0.356 0.351,-0.533 0.091,-0.137 0.185,-0.277 0.275,-0.413 0.119,-0.181 0.234,-0.36 0.348,-0.539 0.084,-0.128 0.169,-0.26 0.252,-0.389 0.119,-0.181 0.229,-0.36 0.343,-0.541 0.076,-0.122 0.157,-0.247 0.232,-0.368 0.111,-0.18 0.218,-0.356 0.327,-0.531 0.074,-0.12 0.15,-0.243 0.221,-0.361 0.09,-0.15 0.177,-0.293 0.264,-0.439 0.608,-1.015 1.163,-1.989 1.658,-2.908 l 0.115,-0.22 c 0.388,-0.743 0.882,-1.69 1.47,-2.82 1.768,-3.395 4.404,-8.461 7.652,-14.729 l 0.497,-0.958 0.864,0.629 c 10.337,7.486 20.345,11.281 29.75,11.281 13.886,0 26.607,-8.126 37.806,-24.153 6.782,-9.706 11.503,-20.246 14.269,-27.378 l 0.047,-0.118 4.025,0 -0.064,0.23 c -6.133,21.91 -13.734,37.361 -23.239,47.235 -8.157,8.475 -18.297,12.952 -29.326,12.952 -14.375,0 -26.499,-8.233 -29.154,-10.172 -0.682,0.938 -2.134,3.042 -5.078,7.606 C 2.89,-4.531 1.993,-3.129 0.974,-1.521 0.65,-1.012 0.325,-0.504 0,0"
         style="fill:#628949;fill-opacity:1;fill-rule:nonzero;stroke:none"
         id="path154" />
    </g>
  </g>
</svg>
